<svg width="66" height="76" viewBox="0 0 66 76" fill="none" xmlns="http://www.w3.org/2000/svg">
<path d="M51.5725 1.06537V19.2472L34.4872 25.4657V61.8294L17.4018 68.0479V31.6843L0.316528 37.9028V19.721L51.5725 1.06537Z" fill="#030303"/>
<path d="M17.4019 31.6843V68.0479L31.5127 74.841V38.4774L17.4019 31.6843Z" fill="#030303" stroke="#030303" stroke-width="0.545455" stroke-linejoin="round"/>
<path d="M0.316528 19.721V37.9028L14.4274 44.6959V26.5141L0.316528 19.721Z" fill="#030303"/>
<path d="M0.171309 19.4902C0.250712 19.4403 0.3503 19.4346 0.434803 19.4753L14.5456 26.2682C14.64 26.3137 14.7 26.4093 14.7001 26.514V44.6958C14.7001 44.7896 14.652 44.8771 14.5726 44.927C14.4932 44.9769 14.3936 44.9822 14.3091 44.9415L0.198298 38.1486C0.103893 38.1031 0.0438238 38.0076 0.0438232 37.9028V19.721C0.0438232 19.6273 0.0919727 19.5401 0.171309 19.4902ZM0.589278 37.7313L14.1546 44.2615V26.6851L0.589278 20.155V37.7313Z" fill="#030303"/>
<path d="M65.6833 7.85847L51.5725 1.06537L34.4872 7.28392L17.4018 13.5025L0.316528 19.721L14.4273 26.5141L31.5127 20.2956L48.598 14.077L65.6833 7.85847Z" fill="#030303"/>
<path d="M51.5055 0.801175C51.5672 0.785498 51.6329 0.791745 51.6908 0.819641L65.8016 7.61261C65.9005 7.66019 65.9612 7.76264 65.9557 7.8722C65.9502 7.98165 65.8797 8.0772 65.7768 8.11474L14.5207 26.7703C14.4517 26.7954 14.3753 26.7918 14.3091 26.76L0.198282 19.9667C0.0994442 19.9191 0.0387025 19.817 0.044163 19.7074C0.0496297 19.5979 0.120147 19.5024 0.22314 19.4649L51.4792 0.808988L51.5055 0.801175ZM1.01788 19.7557L14.4415 26.2184L64.982 7.82319L51.5577 1.36083L1.01788 19.7557Z" fill="#030303"/>
<path d="M14.4272 26.5143L31.5126 20.2957V38.4776L14.4272 44.6961V26.5143Z" fill="#FBD336"/>
<path d="M31.5125 20.023C31.654 19.9715 31.7688 20.0518 31.7688 20.2025V38.3843C31.7688 38.5349 31.654 38.6988 31.5125 38.7503L14.4272 44.9688C14.2856 45.0203 14.1709 44.94 14.1709 44.7894V26.6076C14.1709 26.4569 14.2856 26.2931 14.4272 26.2416L31.5125 20.023ZM14.6835 44.3301L31.2562 38.2981V20.6617L14.6835 26.6937V44.3301Z" fill="#030303"/>
<path d="M31.5126 20.2957L48.5979 14.0772V32.259L31.5126 38.4776V20.2957Z" fill="#FBD336"/>
<path d="M48.5978 13.8045C48.7394 13.753 48.8541 13.8333 48.8541 13.9839V32.1657C48.8541 32.3164 48.7394 32.4802 48.5978 32.5317L31.5125 38.7503C31.371 38.8018 31.2562 38.7215 31.2562 38.5708V20.389C31.2562 20.2384 31.371 20.0745 31.5125 20.023L48.5978 13.8045ZM31.7688 38.1116L48.3415 32.0796V14.4432L31.7688 20.4752V38.1116Z" fill="#030303"/>
<path d="M31.5126 38.4775L48.5979 32.259V50.4408L31.5126 56.6594V38.4775Z" fill="#FBD336"/>
<path d="M48.5978 31.9863C48.7394 31.9348 48.8541 32.0151 48.8541 32.1657V50.3475C48.8541 50.4982 48.7394 50.662 48.5978 50.7135L31.5125 56.9321C31.371 56.9836 31.2562 56.9033 31.2562 56.7526V38.5708C31.2562 38.4202 31.371 38.2563 31.5125 38.2048L48.5978 31.9863ZM31.7688 56.2934L48.3415 50.2614V32.625L31.7688 38.657V56.2934Z" fill="#030303"/>
<path d="M31.5126 56.6594L48.5979 50.4408V68.6226L31.5126 74.8412V56.6594Z" fill="#FBD336"/>
<path d="M48.5978 50.1681C48.7394 50.1166 48.8541 50.1969 48.8541 50.3475V68.5294C48.8541 68.68 48.7394 68.8438 48.5978 68.8954L31.5125 75.1139C31.371 75.1654 31.2562 75.0851 31.2562 74.9345V56.7526C31.2562 56.602 31.371 56.4382 31.5125 56.3866L48.5978 50.1681ZM31.7688 74.4752L48.3415 68.4432V50.8068L31.7688 56.8388V74.4752Z" fill="#030303"/>
<path d="M48.5979 14.0772L65.6832 7.85863V26.0405L48.5979 32.259V14.0772Z" fill="#FBD336"/>
<path d="M65.6832 7.58591C65.8247 7.53439 65.9394 7.61474 65.9394 7.76536V25.9472C65.9394 26.0978 65.8247 26.2617 65.6832 26.3132L48.5978 32.5317C48.4563 32.5832 48.3416 32.5029 48.3416 32.3523V14.1705C48.3416 14.0198 48.4563 13.856 48.5978 13.8045L65.6832 7.58591ZM48.8541 31.893L65.4269 25.861V8.22464L48.8541 14.2566V31.893Z" fill="#030303"/>
<path d="M65.6833 7.85846L14.4274 26.5141" stroke="#030303" stroke-width="0.363636" stroke-linecap="round"/>
</svg>
